:SAMPLES-PER-SECOND 30
:FULLY-SPECIFIED
:DEGREES
571
root  -3.93831 40.8983 -0.242752 174.666 -73.7478 -175.531
RightUpLeg  5.43326 -0.532111 0.607408
RightLeg  -2.16767 -8.88024 0.917194
RightFoot  -1.09668 -0.179772 2.02587
RightToes  -3.13006e-008 1.75238e-005 3.56266e-009
Spine  -8.14728 -8.85039 -7.8809
Spine1  10.1673 -10.0112 5.72579
HEad  -4.05891 4.21067 2.54943
LeftShoulder1  2.60763 -5.59541 -22.3583
LeftArm  -24.8373 -36.6308 -44.1309
LeftForeArm  126.148 -78.1808 -123.054
LeftHand  -0.323312 -4.42021 4.11347
RightShoulder  1.665 3.03074 19.0528
RightArm  -58.2119 14.5217 17.8718
RightForeArm  123.185 62.1463 156.93
RightHand  -1.17399 6.74423 -11.5217
LeftUpLeg  10.0424 2.96829 4.10925
LeftLeg  -5.01443 26.6329 -2.19968
LeftFoot  -1.14264 0.45092 -4.97493
LeftToes  4.76866e-008 1.46233e-008 1.30548e-009
572
root  -3.9482 40.905 -0.223688 175.254 -74.1952 -175.99
RightUpLeg  5.33809 -0.618295 0.425512
RightLeg  -2.20364 -9.15899 0.875226
RightFoot  -1.09575 -0.18888 2.16951
RightToes  -3.13006e-008 1.75238e-005 3.56266e-009
Spine  -7.32547 -7.81152 -6.61564
Spine1  8.87064 -8.81816 5.00783
HEad  -5.64169 2.7335 2.11175
LeftShoulder1  2.538 -5.27257 -22.6293
LeftArm  -24.9827 -29.4022 -41.3952
LeftForeArm  137.484 -75.7566 -135.963
LeftHand  -0.273605 -4.98194 3.35162
RightShoulder  1.82167 3.53542 19.4763
RightArm  -49.8807 11.5113 18.3978
RightForeArm  125.848 61.4244 157.79
RightHand  -1.03349 6.81425 -10.1336
LeftUpLeg  9.93944 2.82652 3.92027
LeftLeg  -5.28336 26.3763 -2.33749
LeftFoot  -1.01854 0.445537 -4.86358
LeftToes  4.76866e-008 1.46233e-008 1.30548e-009
573
root  -3.93837 40.8985 -0.207435 175.133 -74.8533 -175.783
RightUpLeg  5.31591 -0.688198 0.411179
RightLeg  -2.25625 -9.71684 0.954736
RightFoot  -1.12578 -0.187565 2.14795
RightToes  -3.13006e-008 1.75238e-005 3.56266e-009
Spine  -7.00939 -6.79748 -5.41314
Spine1  8.74718 -7.72024 4.3519
HEad  -8.33403 1.56545 1.64646
LeftShoulder1  2.68306 -5.62159 -23.1417
LeftArm  -24.6183 -20.4604 -38.5541
LeftForeArm  143.627 -72.9808 -144.376
LeftHand  -0.301077 -5.54397 3.50784
RightShoulder  1.99767 4.01394 20.2222
RightArm  -41.5322 7.86657 18.0798
RightForeArm  129.5 61.2422 158.249
RightHand  -0.896167 7.11068 -8.67294
LeftUpLeg  9.69574 2.7333 3.89305
LeftLeg  -5.18977 25.8763 -2.19955
LeftFoot  -1.14227 0.417634 -4.60193
LeftToes  4.76866e-008 1.46233e-008 1.30548e-009
574
root  -3.9535 40.8918 -0.214448 174.838 -75.69 -175.554
RightUpLeg  5.58137 -0.819319 0.381291
RightLeg  -2.41302 -10.3152 1.09262
RightFoot  -1.21896 -0.185251 2.09573
RightToes  -3.13006e-008 1.75238e-005 3.56266e-009
Spine  -6.92966 -5.9085 -5.01003
Spine1  9.56154 -6.95237 4.5819
HEad  -12.909 -1.02756 0.702318
LeftShoulder1  2.76777 -5.68219 -23.9136
LeftArm  -24.6128 -10.7026 -35.6962
LeftForeArm  150.723 -70.5516 -149.95
LeftHand  -0.0418082 -6.63254 0.796634
RightShoulder  2.15779 4.39547 21.0214
RightArm  -34.5686 4.02009 16.4434
RightForeArm  137.351 62.4291 157.919
RightHand  -0.585962 8.12623 -5.34849
LeftUpLeg  9.6322 2.68715 3.93162
LeftLeg  -5.08052 25.1399 -2.04115
LeftFoot  -1.21472 0.413276 -4.5932
LeftToes  4.76866e-008 1.46233e-008 1.30548e-009
575
root  -3.96524 40.8875 -0.23559 175.074 -76.6611 -175.731
RightUpLeg  5.69249 -0.892845 0.306938
RightLeg  -2.54214 -11.064 1.14483
RightFoot  -1.32507 -0.183687 2.05035
RightToes  -3.13006e-008 1.75238e-005 3.56266e-009
Spine  -7.10679 -5.1549 -4.67295
Spine1  10.659 -6.22064 4.44875
HEad  -16.9507 -2.10889 0.687799
LeftShoulder1  2.67337 -5.31639 -24.1028
LeftArm  -24.6784 -0.888599 -32.2795
LeftForeArm  157.721 -69.2707 -152.793
LeftHand  0.183845 -8.53143 -1.17272
RightShoulder  2.23347 4.42803 21.9198
RightArm  -30.051 0.327894 14.5798
RightForeArm  148.764 65.0023 156.642
RightHand  -0.033518 8.66988 -0.711208
LeftUpLeg  9.45777 2.49337 3.82546
LeftLeg  -5.103 24.3978 -1.86305
LeftFoot  -1.17905 0.4283 -4.78422
LeftToes  4.76866e-008 1.46233e-008 1.30548e-009
576
root  -3.98071 40.8844 -0.252989 175.142 -77.8628 -175.652
RightUpLeg  5.71942 -0.980173 0.276406
RightLeg  -2.64633 -12.1608 1.27508
RightFoot  -1.43098 -0.182691 2.01129
RightToes  -3.13006e-008 1.75238e-005 3.56266e-009
Spine  -6.97183 -4.5801 -3.92267
Spine1  11.0648 -5.52653 3.75669
HEad  -19.8336 -3.53502 1.3851
LeftShoulder1  2.54076 -4.91365 -23.952
LeftArm  -24.9096 7.81097 -27.6825
LeftForeArm  162.478 -70.0252 -152.363
LeftHand  0.318448 -9.07576 -2.13787
RightShoulder  2.25737 4.49268 21.9992
RightArm  -27.8227 -4.01974 12.7054
RightForeArm  156.546 68.7226 153.333
RightHand  0.332178 9.41347 2.23116
LeftUpLeg  9.09269 2.38927 3.83124
LeftLeg  -4.95231 23.3014 -1.66358
LeftFoot  -1.22718 0.437781 -4.85986
LeftToes  4.76866e-008 1.46233e-008 1.30548e-009
577
root  -3.99847 40.8834 -0.267517 175.993 -79.1455 -176.359
RightUpLeg  5.60846 -1.2625 0.00889848
RightLeg  -2.46431 -13.0784 1.40836
RightFoot  -1.65682 -0.181846 1.97354
RightToes  -3.13006e-008 1.75238e-005 3.56266e-009
Spine  -6.99538 -4.05436 -3.34916
Spine1  11.5408 -4.80041 2.9037
HEad  -21.534 -3.97708 1.30612
LeftShoulder1  2.1551 -3.98929 -22.4615
LeftArm  -25.71 14.182 -23.3697
LeftForeArm  163.616 -73.3305 -146.875
LeftHand  0.595719 -10.0976 -4.05418
RightShoulder  2.1841 4.26181 21.8698
RightArm  -28.3172 -7.62301 10.1891
RightForeArm  152.259 73.3284 144.977
RightHand  0.621734 8.01863 4.99703
LeftUpLeg  8.76286 2.18322 3.64659
LeftLeg  -4.94402 22.2452 -1.54078
LeftFoot  -1.1931 0.448346 -4.96794
LeftToes  4.76866e-008 1.46233e-008 1.30548e-009
578
root  -4.02036 40.886 -0.281229 176.579 -80.663 -176.749
RightUpLeg  5.64351 -1.39184 -0.0976799
RightLeg  -2.62831 -14.4338 1.5436
RightFoot  -1.70393 -0.18395 1.98206
RightToes  -3.13006e-008 1.75238e-005 3.56266e-009
Spine  -6.69432 -3.63102 -3.08929
Spine1  11.3206 -4.32233 2.73371
HEad  -21.8617 -4.65903 1.29403
LeftShoulder1  1.75998 -2.95801 -20.8133
LeftArm  -27.3552 17.6165 -19.368
LeftForeArm  153.939 -78.4218 -129.374
LeftHand  0.736702 -9.77624 -5.20621
RightShoulder  1.78925 3.28847 19.961
RightArm  -30.898 -10.1858 8.92394
RightForeArm  128.834 78.49 121.834
RightHand  0.864666 7.12487 7.60559
LeftUpLeg  8.35811 2.04468 3.58306
LeftLeg  -4.95137 20.9185 -1.43983
LeftFoot  -1.08915 0.448268 -4.9203
LeftToes  4.76866e-008 1.46233e-008 1.30548e-009
579
root  -4.03935 40.8896 -0.28225 177.782 -81.9094 -177.673
RightUpLeg  5.43309 -1.50551 -0.269282
RightLeg  -2.5438 -15.493 1.5764
RightFoot  -1.82994 -0.193989 2.11567
RightToes  -3.13006e-008 1.75238e-005 3.56266e-009
Spine  -6.64715 -3.16886 -2.40803
Spine1  11.0417 -3.63411 1.85315
HEad  -21.3389 -5.85812 1.46821
LeftShoulder1  1.34742 -1.89943 -18.349
LeftArm  -30.2852 18.51 -16.7815
LeftForeArm  113.711 -81.2181 -80.6269
LeftHand  0.615557 -8.58871 -4.71427
RightShoulder  1.41561 2.2858 17.9702
RightArm  -34.2836 -11.3395 7.69983
RightForeArm  76.0955 79.5249 70.5284
RightHand  0.805749 6.2859 7.63855
LeftUpLeg  7.87398 1.8655 3.42752
LeftLeg  -4.92595 19.9195 -1.36056
LeftFoot  -0.989557 0.451111 -4.92172
LeftToes  4.76866e-008 1.46233e-008 1.30548e-009
580
root  -4.07228 40.8993 -0.279359 179.093 -83.2198 -178.826
RightUpLeg  5.50015 -1.67832 -0.462472
RightLeg  -2.67868 -16.498 1.68232
RightFoot  -1.83134 -0.20347 2.24411
RightToes  -3.13006e-008 1.75238e-005 3.56266e-009
Spine  -6.06154 -2.78706 -1.92826
Spine1  9.68314 -3.06296 1.2111
HEad  -19.1031 -5.91308 1.44952
LeftShoulder1  1.05152 -1.14118 -15.8856
LeftArm  -34.0088 17.7228 -14.6246
LeftForeArm  71.2528 -75.1717 -34.5206
LeftHand  0.529389 -7.18826 -4.53253
RightShoulder  1.2048 1.79153 16.075
RightArm  -37.4588 -12.3271 5.45165
RightForeArm  40.5171 72.2223 32.859
RightHand  0.646568 6.36195 6.0534
LeftUpLeg  7.60172 1.7998 3.3459
LeftLeg  -5.04481 18.7316 -1.42939
LeftFoot  -0.884331 0.443482 -4.75073
LeftToes  4.76866e-008 1.46233e-008 1.30548e-009
581
root  -4.10037 40.9089 -0.258178 -179.921 -84.5541 -179.632
RightUpLeg  5.59396 -1.7223 -0.522025
RightLeg  -2.97391 -17.7196 1.78282
RightFoot  -1.74051 -0.213004 2.37865
RightToes  -3.13006e-008 1.75238e-005 3.56266e-009
Spine  -5.55583 -2.41528 -0.921016
Spine1  8.24455 -2.44101 0.0648009
HEad  -16.8471 -6.96819 1.75756
LeftShoulder1  0.903504 -0.883222 -13.6155
LeftArm  -38.6257 15.0695 -12.5961
LeftForeArm  54.5331 -63.4232 -17.0136
LeftHand  0.317201 -5.61479 -2.93404
RightShoulder  0.953017 1.15607 13.5795
RightArm  -41.7887 -11.4194 4.58626
RightForeArm  27.7605 60.3426 17.1495
RightHand  0.24619 5.88104 2.15619
LeftUpLeg  7.15353 1.65373 3.2584
LeftLeg  -4.85114 17.6133 -1.25073
LeftFoot  -0.862251 0.445212 -4.74426
LeftToes  4.76866e-008 1.46233e-008 1.30548e-009
582
root  -4.16138 40.9112 -0.238285 -177.821 -85.1585 178.129
RightUpLeg  5.88444 -1.84607 -0.725444
RightLeg  -2.93974 -18.1516 1.69713
RightFoot  -1.88262 -0.230276 2.63831
RightToes  -3.13006e-008 1.75238e-005 3.56266e-009
Spine  -5.11329 -1.91981 0.0388281
Spine1  7.24426 -1.67627 -1.21102
HEad  -14.6217 -7.47012 1.79949
LeftShoulder1  0.754013 -0.48136 -11.7668
LeftArm  -43.3215 11.2004 -10.1092
LeftForeArm  46.4377 -50.0393 -9.72297
LeftHand  -0.0547315 -2.88237 0.945194
RightShoulder  0.777472 0.683155 11.4779
RightArm  -45.6726 -10.2622 3.11773
RightForeArm  23.7104 48.3629 10.8146
RightHand  -0.0980524 4.41658 -1.43369
LeftUpLeg  7.55112 1.57433 3.07316
LeftLeg  -5.37364 17.0972 -1.42216
LeftFoot  -0.703516 0.437932 -4.66036
LeftToes  4.76866e-008 1.46233e-008 1.30548e-009
